<svg width="104" height="320" viewBox="0 0 104 320" fill="none" xmlns="http://www.w3.org/2000/svg">
<path d="M104 59.99C93.1407 48.8471 87.0101 39.6992 85.598 32.5464C85.598 28.4812 83.9095 26.4461 80.5427 26.4461C68.7035 22.4561 59.8693 15.4987 54.0302 5.56892C52.3417 2.44111 51.5025 0.586468 51.5025 2.10191e-06L43.3317 12.1955C34.8643 20.7168 26.3618 25.7995 17.8191 27.4436C17.8141 35.8897 11.8744 46.2306 0 58.4662H1C2.56784 58.4662 11.7387 55.4185 28.5126 49.3183C28.5126 43.5689 32.608 36.787 40.799 28.9674C41.3869 28.6165 42.0503 28.4411 42.799 28.4411H43.3266C44.6985 31.0977 45.3819 35.6942 45.3819 42.2206V42.6917C47.809 38.6667 49.6734 36.4762 50.9648 36.1253C52.4523 36.1253 54.6683 38.4912 57.608 43.2231V35.599C57.608 33.4486 58.1156 31.0627 59.1357 28.4461H60.6633C69.1307 35.6391 73.3618 41.7594 73.3618 46.802C73.3618 49.619 76.9296 51.6491 84.0603 52.9023C84.8442 53.4887 91.4874 55.8546 103.99 60L104 59.99Z" fill="white"/>
<path d="M104 59.99C93.1407 48.8471 87.0101 39.6992 85.598 32.5464C85.598 28.4812 83.9095 26.4461 80.5427 26.4461C68.7035 22.4561 59.8693 15.4987 54.0302 5.56892C52.3417 2.44111 51.5025 0.586468 51.5025 2.10191e-06L43.3317 12.1955C34.8643 20.7168 26.3618 25.7995 17.8191 27.4436C17.8141 35.8897 11.8744 46.2306 0 58.4662H1C2.56784 58.4662 11.7387 55.4185 28.5126 49.3183C28.5126 43.5689 32.608 36.787 40.799 28.9674C41.3869 28.6165 42.0503 28.4411 42.799 28.4411H43.3266C44.6985 31.0977 45.3819 35.6942 45.3819 42.2206V42.6917C47.809 38.6667 49.6734 36.4762 50.9648 36.1253C52.4523 36.1253 54.6683 38.4912 57.608 43.2231V35.599C57.608 33.4486 58.1156 31.0627 59.1357 28.4461H60.6633C69.1307 35.6391 73.3618 41.7594 73.3618 46.802C73.3618 49.619 76.9296 51.6491 84.0603 52.9023C84.8442 53.4887 91.4874 55.8546 103.99 60L104 59.99Z" fill="white"/>
<path d="M104 260.01C93.1407 271.153 87.0101 280.301 85.598 287.454C85.598 291.519 83.9096 293.554 80.5427 293.554C68.7035 297.544 59.8693 304.501 54.0302 314.431C52.3417 317.559 51.5025 319.414 51.5025 320L43.3317 307.805C34.8643 299.283 26.3618 294.2 17.8191 292.556C17.8141 284.11 11.8744 273.769 0 261.534H1C2.56784 261.534 11.7387 264.581 28.5126 270.682C28.5126 276.431 32.608 283.213 40.799 291.033C41.3869 291.383 42.0503 291.559 42.799 291.559H43.3266C44.6985 288.902 45.3819 284.306 45.3819 277.779V277.308C47.809 281.333 49.6734 283.524 50.9648 283.875C52.4523 283.875 54.6683 281.509 57.608 276.777V284.401C57.608 286.551 58.1156 288.937 59.1357 291.554H60.6633C69.1307 284.361 73.3618 278.241 73.3618 273.198C73.3618 270.381 76.9296 268.351 84.0603 267.098C84.8442 266.511 91.4874 264.145 103.99 260L104 260.01Z" fill="white"/>
<path d="M104 260.01C93.1407 271.153 87.0101 280.301 85.598 287.454C85.598 291.519 83.9096 293.554 80.5427 293.554C68.7035 297.544 59.8693 304.501 54.0302 314.431C52.3417 317.559 51.5025 319.414 51.5025 320L43.3317 307.805C34.8643 299.283 26.3618 294.2 17.8191 292.556C17.8141 284.11 11.8744 273.769 0 261.534H1C2.56784 261.534 11.7387 264.581 28.5126 270.682C28.5126 276.431 32.608 283.213 40.799 291.033C41.3869 291.383 42.0503 291.559 42.799 291.559H43.3266C44.6985 288.902 45.3819 284.306 45.3819 277.779V277.308C47.809 281.333 49.6734 283.524 50.9648 283.875C52.4523 283.875 54.6683 281.509 57.608 276.777V284.401C57.608 286.551 58.1156 288.937 59.1357 291.554H60.6633C69.1307 284.361 73.3618 278.241 73.3618 273.198C73.3618 270.381 76.9296 268.351 84.0603 267.098C84.8442 266.511 91.4874 264.145 103.99 260L104 260.01Z" fill="white"/>
</svg>
