<svg width="1440" height="897" viewBox="0 0 1440 897" fill="none" xmlns="http://www.w3.org/2000/svg">
<g filter="url(#filter0_bd_2_1418)">
<path d="M1440 4V875H-2V4L1440 4Z" fill="url(#paint0_linear_2_1418)" fill-opacity="0.84" shape-rendering="crispEdges"/>
<path d="M1440.5 4V3.5H1440L-2 3.5H-2.5V4V875V875.5H-2H1440H1440.5V875V4Z" stroke="url(#paint1_radial_2_1418)" stroke-opacity="0.43" shape-rendering="crispEdges"/>
<path d="M1440.5 4V3.5H1440L-2 3.5H-2.5V4V875V875.5H-2H1440H1440.5V875V4Z" stroke="url(#paint2_radial_2_1418)" stroke-opacity="0.23" shape-rendering="crispEdges"/>
<path d="M1440.5 4V3.5H1440L-2 3.5H-2.5V4V875V875.5H-2H1440H1440.5V875V4Z" stroke="url(#paint3_radial_2_1418)" shape-rendering="crispEdges"/>
</g>
<defs>
<filter id="filter0_bd_2_1418" x="-45" y="-39" width="1528" height="957" filterUnits="userSpaceOnUse" color-interpolation-filters="sRGB">
<feFlood flood-opacity="0" result="BackgroundImageFix"/>
<feGaussianBlur in="BackgroundImageFix" stdDeviation="21"/>
<feComposite in2="SourceAlpha" operator="in" result="effect1_backgroundBlur_2_1418"/>
<feColorMatrix in="SourceAlpha" type="matrix" values="0 0 0 0 0 0 0 0 0 0 0 0 0 0 0 0 0 0 127 0" result="hardAlpha"/>
<feOffset dy="9"/>
<feGaussianBlur stdDeviation="6"/>
<feComposite in2="hardAlpha" operator="out"/>
<feColorMatrix type="matrix" values="0 0 0 0 0 0 0 0 0 0 0 0 0 0 0 0 0 0 0.16 0"/>
<feBlend mode="normal" in2="effect1_backgroundBlur_2_1418" result="effect2_dropShadow_2_1418"/>
<feBlend mode="normal" in="SourceGraphic" in2="effect2_dropShadow_2_1418" result="shape"/>
</filter>
<linearGradient id="paint0_linear_2_1418" x1="1592.86" y1="594.713" x2="594.261" y2="-530.95" gradientUnits="userSpaceOnUse">
<stop stop-color="#19587D" stop-opacity="0.4"/>
<stop offset="1" stop-color="#EDDEBF" stop-opacity="0.4"/>
</linearGradient>
<radialGradient id="paint1_radial_2_1418" cx="0" cy="0" r="1" gradientUnits="userSpaceOnUse" gradientTransform="translate(719 439.5) rotate(-29.0326) scale(1145.04 756.532)">
<stop stop-color="white"/>
<stop offset="1" stop-color="white" stop-opacity="0"/>
</radialGradient>
<radialGradient id="paint2_radial_2_1418" cx="0" cy="0" r="1" gradientUnits="userSpaceOnUse" gradientTransform="translate(719 439.5) rotate(144.903) scale(908.923 621.321)">
<stop stop-color="#35302E"/>
<stop offset="1" stop-color="#E3CD4B" stop-opacity="0"/>
</radialGradient>
<radialGradient id="paint3_radial_2_1418" cx="0" cy="0" r="1" gradientUnits="userSpaceOnUse" gradientTransform="translate(719 439.5) rotate(-148.014) scale(901.064 605.109)">
<stop stop-color="white"/>
<stop offset="1" stop-color="#151515" stop-opacity="0"/>
</radialGradient>
</defs>
</svg>
