<svg width="98" height="73" viewBox="0 0 98 73" fill="none" xmlns="http://www.w3.org/2000/svg">
<path d="M22.2739 43.8878C21.1845 43.8878 20.139 43.722 19.0984 43.5708C19.4355 44.7021 19.7823 45.853 20.3393 46.8868C20.8962 48.3887 21.7658 49.6907 22.6306 51.0025C23.3536 52.4215 24.6287 53.3822 25.5667 54.5964C26.5487 55.7765 27.8873 56.5616 28.9475 57.5418C29.9881 58.5658 31.3511 59.0778 32.4357 59.7995C33.5691 60.4481 34.556 61.1649 35.6112 61.5063L38.2445 62.5888L40.5602 63.5495L38.1907 73L35.2741 72.2978C34.341 72.0637 33.2027 71.7907 31.908 71.4639C30.5841 71.2201 29.1722 70.552 27.5991 69.9425C26.0455 69.25 24.2476 68.7819 22.5768 67.6701C20.8962 66.607 18.9567 65.7195 17.2468 64.2956C15.5906 62.8278 13.5925 61.555 12.117 59.6874C10.5048 57.9416 8.91219 56.1081 7.67617 54.021C6.24473 52.0314 5.27252 49.8468 4.24657 47.6865C3.31834 45.5263 2.57086 43.3172 1.96018 41.1716C0.802326 36.8706 0.284467 32.7842 0.084163 29.2878C-0.0819426 25.7865 0.0157666 22.8753 0.220956 20.7687C0.294238 19.7739 0.431031 18.8084 0.52874 18.1403L0.650876 17.3211L0.777898 17.3503C1.64683 13.2988 3.64715 9.57569 6.54745 6.61156C9.44775 3.64743 13.1295 1.56343 17.1668 0.600662C21.2042 -0.362106 25.4321 -0.164316 29.3615 1.17116C33.2909 2.50663 36.7613 4.92522 39.3711 8.14713C41.9809 11.369 43.6236 15.2626 44.1091 19.3775C44.5945 23.4923 43.903 27.6602 42.1144 31.3992C40.3258 35.1381 37.5133 38.2952 34.0022 40.5053C30.4911 42.7153 26.4249 43.8881 22.2739 43.8878ZM76.014 43.8878C74.9245 43.8878 73.879 43.722 72.8384 43.5708C73.1755 44.7021 73.5224 45.853 74.0793 46.8868C74.6363 48.3887 75.5059 49.6907 76.3706 51.0025C77.0936 52.4215 78.3687 53.3822 79.3068 54.5964C80.2887 55.7765 81.6273 56.5616 82.6875 57.5418C83.7281 58.5658 85.0911 59.0778 86.1757 59.7995C87.3091 60.4481 88.296 61.1649 89.3513 61.5063L91.9845 62.5888L94.3002 63.5495L91.9308 73L89.0142 72.2978C88.081 72.0637 86.9427 71.7907 85.6481 71.4639C84.3241 71.2201 82.9122 70.552 81.3391 69.9425C79.7904 69.2452 77.9877 68.7819 76.3169 67.6652C74.6363 66.6021 72.6967 65.7146 70.9868 64.2907C69.3307 62.8229 67.3325 61.5502 65.8571 59.6874C64.2449 57.9416 62.6522 56.1081 61.4162 54.021C59.9848 52.0314 59.0126 49.8468 57.9866 47.6865C57.0584 45.5263 56.3109 43.3172 55.7002 41.1716C54.5424 36.8706 54.0245 32.7842 53.8242 29.2878C53.6581 25.7865 53.7558 22.8753 53.961 20.7687C54.0343 19.7739 54.1711 18.8084 54.2688 18.1403L54.3909 17.3211L54.5179 17.3503C55.3869 13.2988 57.3872 9.57569 60.2875 6.61156C63.1878 3.64743 66.8696 1.56343 70.9069 0.600662C74.9442 -0.362106 79.1721 -0.164316 83.1016 1.17116C87.031 2.50663 90.5013 4.92522 93.1111 8.14713C95.721 11.369 97.3636 15.2626 97.8491 19.3775C98.3346 23.4923 97.643 27.6602 95.8545 31.3992C94.0659 35.1381 91.2533 38.2952 87.7422 40.5053C84.2311 42.7153 80.1649 43.8881 76.014 43.8878Z" fill="url(#paint0_linear_2_436)"/>
<defs>
<linearGradient id="paint0_linear_2_436" x1="49" y1="73" x2="-21" y2="5" gradientUnits="userSpaceOnUse">
<stop stop-color="#19587D" stop-opacity="0.4"/>
<stop offset="1" stop-color="#EDDEBF" stop-opacity="0.4"/>
</linearGradient>
</defs>
</svg>
