<svg width="98" height="73" viewBox="0 0 98 73" fill="none" xmlns="http://www.w3.org/2000/svg">
<path d="M22.2739 29.1122C21.1845 29.1122 20.139 29.278 19.0984 29.4292C19.4355 28.2979 19.7823 27.147 20.3393 26.1132C20.8962 24.6113 21.7658 23.3093 22.6306 21.9975C23.3536 20.5785 24.6287 19.6178 25.5667 18.4036C26.5487 17.2235 27.8873 16.4384 28.9475 15.4582C29.9881 14.4342 31.3511 13.9222 32.4357 13.2005C33.5691 12.5519 34.556 11.8351 35.6112 11.4937L38.2445 10.4112L40.5602 9.4505L38.1907 0L35.2741 0.702202C34.341 0.93627 33.2027 1.20935 31.908 1.53607C30.5841 1.77989 29.1722 2.44796 27.5991 3.05751C26.0455 3.74997 24.2476 4.2181 22.5768 5.32993C20.8962 6.39299 18.9567 7.28049 17.2468 8.70441C15.5906 10.1722 13.5925 11.445 12.117 13.3126C10.5048 15.0584 8.91219 16.8919 7.67617 18.979C6.24473 20.9686 5.27252 23.1532 4.24657 25.3135C3.31834 27.4737 2.57086 29.6828 1.96018 31.8284C0.802326 36.1294 0.284467 40.2158 0.084163 43.7122C-0.0819426 47.2135 0.0157666 50.1247 0.220956 52.2313C0.294238 53.2261 0.431031 54.1916 0.52874 54.8597L0.650876 55.6789L0.777898 55.6497C1.64683 59.7012 3.64715 63.4243 6.54745 66.3884C9.44775 69.3526 13.1295 71.4366 17.1668 72.3993C21.2042 73.3621 25.4321 73.1643 29.3615 71.8288C33.2909 70.4934 36.7613 68.0748 39.3711 64.8529C41.9809 61.631 43.6236 57.7374 44.1091 53.6225C44.5945 49.5077 43.903 45.3398 42.1144 41.6008C40.3258 37.8619 37.5133 34.7048 34.0022 32.4947C30.4911 30.2847 26.4249 29.1119 22.2739 29.1122V29.1122ZM76.014 29.1122C74.9245 29.1122 73.879 29.278 72.8384 29.4292C73.1755 28.2979 73.5224 27.147 74.0793 26.1132C74.6363 24.6113 75.5059 23.3093 76.3706 21.9975C77.0936 20.5785 78.3687 19.6178 79.3068 18.4036C80.2887 17.2235 81.6273 16.4384 82.6875 15.4582C83.7281 14.4342 85.0911 13.9222 86.1757 13.2005C87.3091 12.5519 88.296 11.8351 89.3513 11.4937L91.9845 10.4112L94.3002 9.4505L91.9308 0L89.0142 0.702202C88.081 0.93627 86.9427 1.20935 85.6481 1.53607C84.3241 1.77989 82.9122 2.44796 81.3391 3.05751C79.7904 3.75484 77.9877 4.2181 76.3169 5.3348C74.6363 6.39786 72.6967 7.28537 70.9868 8.70928C69.3307 10.1771 67.3325 11.4498 65.8571 13.3126C64.2449 15.0584 62.6522 16.8919 61.4162 18.979C59.9848 20.9686 59.0126 23.1532 57.9866 25.3135C57.0584 27.4737 56.3109 29.6828 55.7002 31.8284C54.5424 36.1294 54.0245 40.2158 53.8242 43.7122C53.6581 47.2135 53.7558 50.1247 53.961 52.2313C54.0343 53.2261 54.1711 54.1916 54.2688 54.8597L54.3909 55.6789L54.5179 55.6497C55.3869 59.7012 57.3872 63.4243 60.2875 66.3884C63.1878 69.3526 66.8696 71.4366 70.9069 72.3993C74.9442 73.3621 79.1721 73.1643 83.1016 71.8288C87.031 70.4934 90.5013 68.0748 93.1111 64.8529C95.721 61.631 97.3636 57.7374 97.8491 53.6225C98.3346 49.5077 97.643 45.3398 95.8545 41.6008C94.0659 37.8619 91.2534 34.7048 87.7422 32.4947C84.2311 30.2847 80.1649 29.1119 76.014 29.1122V29.1122Z" fill="url(#paint0_linear_2_435)"/>
<defs>
<linearGradient id="paint0_linear_2_435" x1="121" y1="106" x2="7" y2="14" gradientUnits="userSpaceOnUse">
<stop stop-color="#19587D" stop-opacity="0.4"/>
<stop offset="1" stop-color="#EDDEBF" stop-opacity="0.4"/>
</linearGradient>
</defs>
</svg>
