<svg width="51" height="51" viewBox="0 0 51 51" fill="none" xmlns="http://www.w3.org/2000/svg">
<path fill-rule="evenodd" clip-rule="evenodd" d="M11.1309 18.6753C11.2407 18.626 15.5848 18.6563 15.5848 18.6563C16.6225 18.6563 17.4671 19.2661 17.8042 20.1713C17.9784 20.6371 17.9405 21.1408 17.9405 21.6786V31.4499C17.9405 32.2301 17.6981 32.7452 17.3005 33.1391C16.7816 33.6541 16.3196 33.8359 15.4977 33.8359L12.839 33.8321L12.8352 20.4818C12.8352 19.9402 12.9602 20.016 12.1384 19.4479C11.8884 19.2775 11.2218 18.8268 11.1498 18.7207C11.1461 18.7056 11.1385 18.6829 11.1309 18.6753ZM25.5 0C39.585 0 51 11.4188 51 25.5C51 39.5851 39.5813 51 25.5 51C11.415 51 9.41848e-07 39.5813 9.41848e-07 25.5C-0.00378638 11.4188 11.415 0 25.5 0ZM25.5 1.95048C33.5935 1.95048 40.7326 6.0332 44.9706 12.2482C44.4555 12.2974 42.6073 12.2596 41.9824 12.2596C41.1681 12.2596 41.3158 12.2633 41.0318 12.8958C40.9598 13.0549 40.8614 13.2443 40.7781 13.4412C40.7023 13.6154 40.5849 13.8237 40.5129 14.0055C40.3425 13.9904 40.2668 13.8957 40.1456 13.801C40.0357 13.7177 39.9411 13.6457 39.835 13.57L38.5776 12.6572C38.3163 12.4716 38.1724 12.2861 37.8202 12.2861H32.5065C32.2907 12.2861 32.1922 12.3088 32.0521 12.4186L28.9919 14.6418C28.7912 14.8084 28.5147 14.9788 28.3102 15.1341C28.0868 15.3046 27.8444 15.4674 27.6323 15.6303C27.0414 16.081 27.1172 15.9522 27.1172 16.846V36.1575C27.1172 36.5249 27.4543 36.6499 27.7156 36.8355C27.9504 36.9983 28.2231 37.2559 28.4693 37.3922C28.742 37.5437 28.9578 37.7671 29.2116 37.9338C29.7986 38.3201 31.9612 40.0017 32.2452 40.1039C32.4459 40.1759 33.2489 40.1342 33.5291 40.1342C34.582 40.1342 43.7284 40.0888 43.9291 40.1569C43.9291 40.1607 43.9329 40.1645 43.9329 40.1645C39.6191 45.5804 32.9648 49.0534 25.5038 49.0534C18.0352 49.0534 11.3809 45.5766 7.06713 40.1569V40.1532C7.36254 40.1115 7.66552 40.1342 7.96093 40.1342H19.4744C19.9895 40.1342 20.0387 40.0888 20.3796 39.8388L24.6819 36.7105C24.9433 36.5363 25.0758 36.4757 25.0758 36.1045V16.2514C25.0758 15.9143 24.8107 15.7931 24.5532 15.6265C24.4699 15.5735 24.3297 15.4598 24.2313 15.3803L21.8642 13.6609C21.6294 13.4942 21.4249 13.3503 21.1787 13.1723L20.175 12.4376C19.9516 12.2596 19.6448 12.2936 19.3608 12.2936L6.04076 12.2899C6.03697 12.2785 6.0332 12.2671 6.0332 12.2558C10.2674 6.03321 17.4065 1.95048 25.5 1.95048ZM46.6787 15.1947C48.1974 18.3079 49.0495 21.8074 49.0495 25.5038C49.0495 29.6812 47.9626 33.6011 46.0538 37.0021C46.0386 37.0021 46.0197 36.9983 46.0008 36.9945C45.9364 36.6196 46.0197 30.5031 45.978 30.3364C45.9591 30.2607 45.9364 30.2342 45.8644 30.2001C45.7849 30.1622 39.4752 30.1433 39.3843 30.219C39.2707 30.3137 39.3275 31.7567 39.3275 31.9915C39.3275 32.4876 39.3805 33.3966 39.3162 33.8397C38.9829 33.8662 37.0437 33.8511 36.5779 33.8473C35.7636 33.8397 35.1387 33.4761 34.7297 32.9535C34.2108 32.2945 34.2373 31.7037 34.2373 30.7038V20.4174C34.2373 20.1599 34.2828 20.0046 34.1086 19.8607L32.5444 18.6715C33.2148 18.6526 39.1609 18.626 39.301 18.6942C39.3389 18.7321 39.3275 18.9631 39.3275 19.0161V22.2429C39.3237 22.5649 39.3351 22.6217 39.6646 22.6179H44.0086C44.2434 22.6179 45.2925 22.6633 45.3948 22.5686C45.5425 22.4323 45.5614 21.5233 45.694 21.0764C45.7432 20.9022 46.0273 18.7094 46.1333 18.2511L46.5272 15.7552C46.5386 15.6151 46.5613 15.5772 46.5764 15.4674C46.5916 15.3538 46.5689 15.2099 46.6749 15.1909C46.6749 15.1947 46.6787 15.1947 46.6787 15.1947ZM5.6393 38.1648C3.30253 34.5063 1.94667 30.1622 1.94667 25.5C1.94667 22.7391 2.42387 20.0917 3.29495 17.63C3.50704 17.6754 3.83275 17.9822 4.09786 18.1564L5.54083 19.2017C5.62036 19.2699 5.67719 19.3002 5.69991 19.4138C5.74157 19.6562 5.70747 34.3434 5.70747 36.7256C5.70747 36.9945 5.76808 37.9982 5.6734 38.161C5.66204 38.1648 5.65066 38.1648 5.6393 38.1648Z" fill="white"/>
</svg>
